<svg xmlns="http://www.w3.org/2000/svg" width="23" height="22" viewBox="0 0 23 22">
    <g fill="#FFF" fill-rule="nonzero" transform="translate(-.265 .5)">
        <path d="M19.742 19.313v1.875H4.367c-2.107 0-3.816-1.743-3.816-3.893v-13C.551 2.145 2.26.403 4.367.403h10.16c2.108 0 3.816 1.743 3.816 3.892V10.5h-1.838V4.295c0-1.114-.885-2.017-1.977-2.017H4.368c-1.093 0-1.978.903-1.978 2.017v13c0 1.114.885 2.017 1.977 2.017h15.375z"/>
        <rect width="10.294" height="2.25" x="4.412" y="14.25" rx="1.125"/>
        <rect width="10.294" height="2.25" x="4.412" y="9.75" rx="1.125"/>
        <rect width="10.16" height="6.341" x="4.367" y=".75" rx="2"/>
        <path d="M19.742 7.006c-.773 0-1.399.638-1.399 1.426v9.454c0 .788.626 1.427 1.399 1.427.772 0 1.398-.639 1.398-1.427V8.432c0-.788-.626-1.426-1.398-1.426zm0-1.875c1.787 0 3.236 1.478 3.236 3.3v9.455c0 1.824-1.449 3.302-3.236 3.302-1.788 0-3.237-1.478-3.237-3.302V8.432c0-1.823 1.45-3.301 3.237-3.301z"/>
    </g>
</svg>
