<svg xmlns="http://www.w3.org/2000/svg" width="21" height="22" viewBox="0 0 21 22">
    <g fill="#FFF" fill-rule="nonzero">
        <path d="M.206 8c0-.621.494-1.125 1.103-1.125S2.412 7.379 2.412 8v5.652c0 .621-.494 1.125-1.103 1.125-.61 0-1.103-.504-1.103-1.125V8zM4.801 6.5c0-.621.494-1.125 1.103-1.125.61 0 1.103.504 1.103 1.125v10.902c0 .621-.493 1.125-1.103 1.125-.609 0-1.103-.504-1.103-1.125V6.5zM9.397 1.25c0-.621.494-1.125 1.103-1.125.61 0 1.103.504 1.103 1.125v19.5c0 .621-.494 1.125-1.103 1.125-.61 0-1.103-.504-1.103-1.125V1.25zM13.993 4.25c0-.621.493-1.125 1.103-1.125.609 0 1.103.504 1.103 1.125v13.5c0 .621-.494 1.125-1.103 1.125-.61 0-1.103-.504-1.103-1.125V4.25zM18.588 8c0-.621.494-1.125 1.103-1.125.61 0 1.103.504 1.103 1.125v5.652c0 .621-.494 1.125-1.103 1.125s-1.103-.504-1.103-1.125V8z"/>
    </g>
</svg>
