<svg xmlns="http://www.w3.org/2000/svg" width="24" height="22" viewBox="0 0 24 22">
    <g fill="#FFF" fill-rule="nonzero">
        <path d="M3.676 9.396a.928.928 0 0 1-.919-.938c0-.517.412-.937.92-.937h10.661c2.538 0 4.596 2.098 4.596 4.687v4.417c0 2.589-2.058 4.688-4.596 4.688h-2.573a.928.928 0 0 1-.92-.938c0-.518.412-.938.92-.938h2.573c1.523 0 2.758-1.259 2.758-2.812v-4.417c0-1.553-1.235-2.812-2.758-2.812H3.676z"/>
        <path d="M7.394 9.396c-1.828 0-3.309-1.511-3.309-3.375s1.481-3.375 3.309-3.375c1.827 0 3.309 1.51 3.309 3.375 0 1.864-1.482 3.375-3.31 3.375zm0-1.875c.812 0 1.47-.672 1.47-1.5 0-.829-.658-1.5-1.47-1.5-.812 0-1.47.671-1.47 1.5 0 .828.658 1.5 1.47 1.5z"/>
        <path d="M13.5 9.125c-2.413 0-4.37-1.996-4.37-4.458 0-2.463 1.957-4.459 4.37-4.459 2.415 0 4.372 1.996 4.372 4.459 0 2.462-1.957 4.458-4.371 4.458zm0-1.875c1.4 0 2.533-1.157 2.533-2.583 0-1.427-1.133-2.584-2.532-2.584s-2.533 1.157-2.533 2.584c0 1.426 1.134 2.583 2.533 2.583zM19.272 14.117a1.213 1.213 0 0 0-.338.841c0 .315.121.617.338.842l2.603 2.7v-7.084l-2.603 2.7zm-1.311-1.315l2.918-3.028a1.632 1.632 0 0 1 2.34-.02c.316.318.494.751.494 1.204v8.001c0 .932-.74 1.688-1.654 1.688-.444 0-.869-.182-1.18-.505l-2.918-3.027a3.108 3.108 0 0 1-.865-2.157c0-.806.31-1.58.865-2.156zM9.277 21.357c.052.294-.251.52-.51.38l-2.816-1.523-2.773 1.613c-.254.148-.564-.068-.521-.364l.49-3.351L.84 15.784c-.204-.205-.094-.56.188-.608l3.123-.536 1.359-3.055a.348.348 0 0 1 .635-.01l1.445 3.01 3.135.434c.284.04.405.39.207.602l-2.24 2.401.585 3.335z"/>
    </g>
</svg>
