<svg xmlns="http://www.w3.org/2000/svg" width="23" height="22" viewBox="0 0 23 22">
    <g fill="#FFF" fill-rule="nonzero">
        <path d="M5.618 2.75c-1.422 0-2.574 1.175-2.574 2.625v7.446c0 1.45 1.152 2.625 2.574 2.625h11.764c1.422 0 2.574-1.175 2.574-2.625V5.375c0-1.45-1.152-2.625-2.574-2.625H5.618zm0-2.25h11.764c2.64 0 4.78 2.183 4.78 4.875v7.446c0 2.693-2.14 4.875-4.78 4.875H5.618c-2.64 0-4.78-2.182-4.78-4.875V5.375C.838 2.683 2.978.5 5.618.5z"/>
        <path d="M14.596 9.796l-4.973 2.536a.729.729 0 0 1-.987-.335.762.762 0 0 1-.077-.336V6.59c0-.415.329-.75.735-.75.114 0 .227.027.329.079l4.973 2.536a.757.757 0 0 1 0 1.342zM3.412 21.848c-.61 0-1.103-.503-1.103-1.125 0-.621.494-1.125 1.103-1.125h16.176c.61 0 1.103.504 1.103 1.125 0 .622-.494 1.125-1.103 1.125H3.412z"/>
    </g>
</svg>
